<svg width="110" height="126" viewBox="0 0 110 126" fill="none" xmlns="http://www.w3.org/2000/svg">
<path d="M107.854 88.6267L95.0885 81.238L106.151 74.6984C108.192 73.4922 108.871 70.8562 107.667 68.8107C106.464 66.7657 103.835 66.0852 101.794 67.2909L86.555 76.2991L63.5778 62.9997L86.551 49.7026L101.795 58.7097C102.478 59.1139 103.228 59.3054 103.968 59.3054C105.437 59.3054 106.867 58.5486 107.667 57.1882C108.87 55.1427 108.191 52.5066 106.15 51.3004L95.0856 44.7631L107.854 37.3727C109.906 36.1854 110.608 33.5557 109.424 31.4993C108.24 29.4423 105.617 28.7377 103.565 29.9256L90.7994 37.3148L90.6833 24.438C90.6622 22.0634 88.719 20.1445 86.356 20.1772C83.9873 20.1984 82.0841 22.1408 82.1058 24.5154L82.2654 42.2538L59.2893 55.5526V28.9573L74.6938 20.2294C76.756 19.061 77.4828 16.4382 76.3174 14.3703C75.1519 12.303 72.535 11.5737 70.4728 12.7427L59.2893 19.0794V4.29973C59.2893 1.92513 57.369 0 55.0003 0C52.6316 0 50.7113 1.92513 50.7113 4.29973V19.0794L39.5277 12.7433C37.4644 11.5743 34.8493 12.303 33.6832 14.3709C32.5178 16.4382 33.2446 19.0616 35.3068 20.23L50.7107 28.9579V55.5526L27.7346 42.2538L27.8942 24.5154C27.9159 22.1408 26.0127 20.1984 23.644 20.1772C23.6309 20.1772 23.6183 20.1772 23.6046 20.1772C21.2542 20.1772 19.3378 22.0766 19.3167 24.4385L19.2006 37.3148L6.43471 29.9256C4.38341 28.7377 1.76024 29.4429 0.575896 31.4993C-0.608449 33.5557 0.09438 36.1854 2.14568 37.3727L14.9138 44.7631L3.84757 51.3016C1.80713 52.5072 1.12775 55.1432 2.3304 57.1893C3.13044 58.5498 4.56069 59.3065 6.02983 59.3065C6.76983 59.3065 7.51955 59.1145 8.20351 58.7109L23.449 49.7038L46.4228 63.0009L23.445 76.3002L8.20351 67.2903C6.16422 66.0846 3.53361 66.7646 2.3304 68.8101C1.12718 70.8556 1.80599 73.4916 3.84643 74.6973L14.911 81.2375L2.14511 88.6261C0.0938084 89.8134 -0.609021 92.4432 0.575324 94.4996C1.36965 95.8789 2.81134 96.65 4.29363 96.65C5.02105 96.65 5.75876 96.4643 6.43414 96.0733L19.2 88.684L19.3161 101.561C19.3373 103.923 21.2536 105.823 23.604 105.823C23.6172 105.823 23.6303 105.823 23.6435 105.822C26.0121 105.801 27.9153 103.859 27.8936 101.484L27.7341 83.7451L50.7107 70.4463V97.0422L35.3068 105.77C33.2446 106.938 32.5178 109.561 33.6832 111.629C34.4718 113.028 35.925 113.814 37.421 113.814C38.1358 113.814 38.8609 113.635 39.5277 113.257L50.7113 106.921V121.7C50.7113 124.075 52.6316 126 55.0003 126C57.369 126 59.2893 124.075 59.2893 121.7V106.921L70.4728 113.257C71.1396 113.635 71.8642 113.814 72.5796 113.814C74.0756 113.814 75.5288 113.028 76.3174 111.629C77.4828 109.562 76.756 106.938 74.6938 105.77L59.2893 97.0422V70.4469L82.2654 83.7451L82.1018 101.483C82.0795 103.858 83.9822 105.801 86.3508 105.823C86.3646 105.823 86.3777 105.823 86.3914 105.823C88.7413 105.823 90.6576 103.924 90.6793 101.563L90.7983 88.684L103.566 96.0738C104.241 96.4648 104.979 96.6506 105.706 96.6506C107.189 96.6506 108.63 95.8789 109.425 94.5001C110.609 92.4437 109.906 89.814 107.854 88.6267Z" fill="#9CC2FE"/>
</svg>
